<?xml version="1.0" encoding="UTF-8"?>
<svg width="200px" height="200px" viewBox="0 0 200 200" version="1.1" xmlns="http://www.w3.org/2000/svg" xmlns:xlink="http://www.w3.org/1999/xlink">
    <title>favicon copy</title>
    <g id="Page-1" stroke="none" stroke-width="1" fill="none" fill-rule="evenodd">
        <g id="favicon-copy">
            <rect id="Rectangle" fill="#15373B" x="0" y="0" width="200" height="200" rx="52"></rect>
            <g id="Group-3" transform="translate(54, 25)" fill-rule="nonzero">
                <g id="Group-17">
                    <g id="Group-16">
                        <g id="Group-15" fill="#FFFFFF">
                            <path d="M46,92.4927345 C71.4054729,92.4927345 92,71.7879071 92,46.2463672 C92,20.7048274 71.4054729,0 46,0 C20.5945271,0 0,20.7048274 0,46.2463672 C0,71.7879071 20.5945271,92.4927345 46,92.4927345 Z" id="path432"></path>
                        </g>
                        <g id="g434" transform="translate(59.7537, 54.7067)" fill="#EDEDED">
                            <path d="M0.524722111,7.33733587 C1.39264664,8.20990884 2.56520693,7.83237175 3.52318102,7.39319595 C3.19746983,7.54151409 3.94852152,7.23524676 4.01557971,7.21405845 C4.29722409,7.11774797 4.58270037,7.04840442 4.8662607,6.9636512 C5.31459258,6.83074274 5.74184902,6.63812177 6.16527357,6.43972218 C6.186349,6.43009113 6.21892012,6.41660766 6.24957529,6.40505041 C6.21317228,6.41853387 6.19784469,6.4243125 6.13653435,6.44742702 C6.18060116,6.43201734 6.22275202,6.41468145 6.26681882,6.39927178 C6.32046537,6.37808347 6.36453218,6.36074758 6.38752356,6.35304275 C6.48332097,6.31644476 6.58103433,6.27984678 6.67683174,6.24517501 C7.25927998,6.03907057 7.84939203,5.85993308 8.4529157,5.72895082 C8.60427561,5.69620526 8.75563552,5.6653859 8.90699542,5.63841897 C8.9376506,5.63264034 9.01812042,5.61915687 9.09475835,5.60567341 C9.17906007,5.59604236 9.28443722,5.58255889 9.32084023,5.57870647 C9.514351,5.55944437 9.70786177,5.54596091 9.90137253,5.53632986 C10.6275169,5.49780567 11.3421656,5.5440347 12.0683099,5.59989478 C12.2541569,5.64034518 12.4457517,5.6653859 12.6315987,5.7039101 C13.0090405,5.78288469 13.3864823,5.86571171 13.7581762,5.96780082 C14.0896353,6.05833267 14.4210943,6.16234799 14.7448895,6.28177299 C14.7812926,6.29525646 14.9211568,6.34919033 15.0035426,6.38000968 C15.0341977,6.39349315 15.0341977,6.39541936 15.0782645,6.41468145 C15.2851869,6.50136089 15.4901934,6.58996653 15.6971158,6.67664596 C15.8331481,6.72865362 15.9806761,6.77680887 16.1224563,6.82496411 C16.1837666,6.8442262 16.2182537,6.85578346 16.2508248,6.86541451 C16.2833959,6.8827504 16.317883,6.90201249 16.3791934,6.93283185 C16.7221481,7.10619071 17.0631869,7.27954958 17.3946459,7.47602296 C19.6056501,8.7819931 21.6595466,5.85222824 20.0463182,4.02040287 C15.9940878,-0.583238166 8.87059241,-0.966553885 3.57107973,1.52018276 C2.27973065,2.1269388 1.10142251,3.45794966 0.363782463,4.67531415 C-0.120952428,5.47276494 -0.172683029,6.63619556 0.524722111,7.33733587" id="path436"></path>
                        </g>
                        <g id="g442" transform="translate(25.3564, 54.3609)" fill="#EDEDED">
                            <path d="M0.593791899,6.24178965 C1.37741471,7.04694528 2.45034569,6.97952794 3.44663875,6.70600617 C3.548184,6.67903924 3.6516452,6.65014609 3.75510641,6.62510537 C3.8700633,6.62125295 4.48508267,6.54420456 4.43909991,6.55383561 C4.72266024,6.49990174 4.99280893,6.41900093 5.26870547,6.33617392 C5.95844682,6.1319957 6.65393601,5.95671062 7.36092089,5.82765458 C7.69237993,5.76794208 8.02383896,5.71978684 8.355298,5.66200055 C8.355298,5.66200055 8.47217084,5.64273845 8.55647256,5.62925498 C8.64077428,5.61769772 8.75956307,5.60228805 8.75956307,5.60228805 C9.47612769,5.52716587 10.1926923,5.48671547 10.9130888,5.49056789 C12.5646362,5.49827273 13.3310154,5.6523695 14.9040089,5.9721203 C16.3907847,6.272609 17.8641488,6.66170335 19.264707,7.24919729 C20.1939418,7.63829164 21.3415948,6.90633197 21.6826336,6.05687352 C22.0926465,5.03020378 21.6807176,4.12681146 20.8434483,3.48730986 C16.2796597,-0.0164654703 9.96661043,-0.865923921 4.51573784,0.875369593 C3.69762796,1.13540789 2.83736723,1.41470829 2.15528967,1.94826836 C1.84107417,2.19289699 1.99626597,2.0965865 1.61882418,2.34891997 C1.17240825,2.65133488 0.768143184,2.94797116 0.452011733,3.38907317 C-0.170671427,4.25779372 -0.174503324,5.45396991 0.593791899,6.24178965" id="path444"></path>
                        </g>
                        <g id="g446" transform="translate(2.4264, 50.922)" fill="#EDEDED">
                            <path d="M0.0670581865,3.99330018 C0.0862176684,3.84498203 0.107293098,3.69666389 0.12645258,3.54834575 C0.149443959,3.39617519 0.20117456,3.25170946 0.281644383,3.11687479 C0.513474114,2.56405262 0.873672373,2.199999 1.35074347,1.8609861 C2.44474989,1.0808712 3.76483819,0.562720808 5.07151485,0.275715571 C7.8649673,-0.338745304 10.7350577,0.0888732362 13.2698571,1.40832684 C14.1703528,1.87832199 14.4711566,3.06679334 14.0994627,3.95477598 C13.7105252,4.88320903 12.6874089,5.40135942 11.7064434,5.13554249 C11.4726977,5.07197757 11.240868,5.01419128 11.0032904,4.96603604 C10.8959973,4.94484774 10.7906202,4.92558564 10.685243,4.90824975 C10.6239327,4.8966925 10.2579866,4.83120137 10.576034,4.88898766 C10.8902495,4.94484774 10.5357991,4.88898766 10.4725728,4.88320903 C10.3671956,4.87165177 10.2618185,4.86394693 10.1545254,4.85624209 C9.94185514,4.84275863 9.72918489,4.83505379 9.51651464,4.83312758 C9.10841768,4.83120137 8.70798451,4.86587314 8.30180349,4.90054492 C8.23282936,4.91210217 8.16385522,4.92365943 8.09488109,4.9371429 C7.88412679,4.9775933 7.67720438,5.01996991 7.46645008,5.06042032 C7.01811821,5.14517354 6.57553417,5.25881991 6.14061394,5.397507 C5.94327127,5.46299813 5.74976051,5.53426789 5.55624974,5.60746385 C5.51218293,5.62672595 5.46620017,5.64791426 5.42404931,5.66717635 C5.21329501,5.7577082 5.00254071,5.84631385 4.79178641,5.93491949 L5.12707735,5.79430619 C5.04085968,5.85209248 4.92781873,5.88676425 4.83585322,5.93106707 C4.64234245,6.02545134 4.45074764,6.12561425 4.26490066,6.23155578 C3.77058603,6.51278238 3.25136407,6.75355859 2.66891582,6.75355859 C2.3259611,6.75355859 1.99641801,6.66302674 1.67837061,6.54360174 C0.9503103,6.40106222 0.335290933,6.03893481 0.0900495647,5.22029572 C0.0344870673,5.02960096 0,4.7984558 0,4.59042516 C0.00383189637,4.20133082 0.0383189637,4.03952921 0.0670581865,3.99330018" id="path448"></path>
                        </g>
                        <g id="g454" transform="translate(10.5906, 37.4699)" fill="#EDEDED">
                            <path d="M2.05482874,7.67725462 C2.90359378,7.75622921 3.60674677,7.24193124 4.32905923,6.87980383 C4.85211309,6.61783932 5.37708289,6.36165343 5.90013675,6.09776271 C6.14537811,5.9744853 6.39636733,5.85891272 6.64544059,5.74334014 C6.69525524,5.72022562 6.74698584,5.69711111 6.79871644,5.67399659 C6.73549015,5.70481595 6.99797506,5.59116958 7.08036083,5.55842401 C7.62832201,5.35424579 8.18777888,5.18281313 8.75873144,5.04797846 C9.28944909,4.92084862 9.82783053,4.80720225 10.364296,4.71089177 C10.400699,4.70511314 10.6057055,4.67622 10.699587,4.66081032 C10.770477,4.65503169 10.8432831,4.64732685 10.8624425,4.64540064 C11.1364231,4.62035992 11.4104037,4.60302403 11.6863003,4.59339298 C12.2668326,4.5760571 12.843533,4.60109782 13.4221493,4.65503169 C13.4643002,4.65888411 13.5045351,4.66273653 13.5390222,4.66658895 C13.692298,4.69162968 13.8474898,4.71859661 14.0007657,4.74748976 C14.3054014,4.80720225 14.6062053,4.87847201 14.9050932,4.95744661 C15.8075048,5.1962966 16.7827224,4.73208008 17.131425,3.85950711 C17.4533043,3.05435148 17.2253065,1.89092086 16.3592979,1.49026926 C13.6022485,0.209339845 10.5443951,-0.326146434 7.5363565,0.201635007 C6.1089751,0.45204226 4.68925749,0.925889831 3.40557221,1.60198941 C1.92646021,2.38210432 0.102477534,3.81905671 0.00284822853,5.61428409 C-0.0622940098,6.80082923 1.00105723,7.57901793 2.05482874,7.67725462" id="path456"></path>
                        </g>
                        <g id="g458" transform="translate(62.0431, 31.4679)" fill="#EDEDED">
                            <path d="M1.94934895,6.64995877 C3.39972173,7.12380634 5.13748674,6.31287209 6.55528839,5.95074467 C7.15881207,5.7966479 7.76999954,5.6752967 8.38501891,5.57706 C8.49231201,5.56742896 9.08625595,5.49230678 9.15906198,5.48652815 C9.48860507,5.45763501 9.81814816,5.43837291 10.1476912,5.42681565 C12.7859519,5.32665275 15.5602449,5.31894791 18.0126585,6.24930717 C20.0416477,7.01786481 21.4651972,3.65662899 19.4975184,2.70700764 C18.0873805,2.02512943 16.6350918,1.22767864 15.1310725,0.788502841 C13.5178441,0.314655269 11.8298938,0.0141665657 10.1476912,0.000683098247 C8.49422796,-0.0128003692 6.82735304,0.174041966 5.20646087,0.497645185 C3.57407302,0.825100824 1.22512054,1.47230726 0.45490937,3.12306892 C-0.531803946,4.56002131 0.140693867,6.44192813 1.94934895,6.64995877" id="path460"></path>
                        </g>
                        <g id="g462" transform="translate(25.8128, 28.6117)" fill="#EDEDED">
                            <path d="M0.705492724,5.6118414 C1.35308321,6.03945994 2.13862197,6.07027929 2.90116935,5.99900954 C4.15419946,6.22822848 5.70036965,5.62532487 6.89400537,5.38647487 C8.05506997,5.15340351 8.99005268,5.07442891 10.3120569,4.97041359 C11.5804146,4.86832448 12.8564361,4.86254585 14.1267098,4.95500391 C15.3069339,5.04168335 16.5254769,5.03783093 17.6942053,5.20733737 C18.5353065,5.33061479 19.3649121,5.0725027 19.7078668,4.2134132 C19.999091,3.48337975 19.7902526,2.43744791 19.0085457,2.07146808 C17.6137355,1.4165568 16.2514963,0.778981414 14.7264016,0.497754807 C13.2721969,0.228085457 11.7911689,0.0528003799 10.3120569,0.00657134856 C8.81378545,-0.0396576828 7.30785017,0.164520539 5.83448602,0.414927792 C4.45691927,0.649925368 2.91266503,0.971602378 1.83398621,1.88847817 C1.04844745,2.34884227 0.243749211,3.04998258 0.0406587036,3.97071079 C-0.104953359,4.63140069 0.146035854,5.24200915 0.705492724,5.6118414" id="path464"></path>
                        </g>
                        <g id="g466" transform="translate(6.1872, 22.4797)" fill="#EDEDED">
                            <path d="M0.0737423812,4.35997708 C0.182951428,4.69898997 0.359218661,5.0033311 0.598712184,5.26529561 C0.912927687,5.61008713 1.57009791,5.91057584 2.04142117,5.86627302 C2.45909787,5.82774882 2.91700949,5.82967503 3.31552671,5.70832382 C3.58184351,5.62549681 3.84816031,5.49258835 4.10681331,5.38857302 C4.7505719,5.12853472 5.42498566,4.89738957 6.04000503,4.57763877 C6.51899208,4.32723151 7.0209705,4.10186499 7.45972264,3.7840404 C7.99235623,3.39879847 8.55372905,3.0463021 8.97906955,2.53970897 C9.36800703,2.07356624 9.52703073,1.51303923 9.28178936,0.92939771 C9.036548,0.343829979 8.54414931,0.0992013549 7.94254158,0.024079179 C7.40224419,-0.0433381584 6.89068603,0.045267485 6.35422054,0.112684822 C5.68172272,0.197438047 5.06287146,0.363092076 4.41144907,0.540303362 C3.90563875,0.678990456 3.41707197,0.894725936 2.92658923,1.08156827 C2.66218838,1.18365738 2.39395563,1.28189407 2.12955478,1.38590939 C1.66589532,1.57082552 1.39383068,1.74996302 1.01255699,2.04274688 C0.646610889,2.32397349 0.361134609,2.58401179 0.177203583,3.02318759 C0.00668419471,3.43154403 -0.0661218364,3.92657991 0.0737423812,4.35997708" id="path468"></path>
                        </g>
                        <g id="g470" transform="translate(44.8085, 16.9939)" fill="#EDEDED">
                            <path d="M2.39970417,7.02090267 C2.64302959,6.94000187 2.8901869,6.87451074 3.13542827,6.80516719 C4.217939,6.82828171 5.33685274,6.2870168 6.436607,5.93452043 C7.07078585,5.73034221 7.72029228,5.5685406 8.37746251,5.44718939 C8.50966293,5.42214867 8.64569525,5.40096036 8.77981163,5.37977206 C8.81621464,5.37591964 8.85261766,5.37206722 8.90818016,5.36436238 C9.19940428,5.33739545 9.4906284,5.30272367 9.78376848,5.27768295 C12.3568869,5.04075916 14.5678911,5.37014101 16.7501561,6.42570389 C17.8058435,6.93614945 19.0933607,6.71656155 19.7179598,5.64366278 C20.3253154,4.60158336 19.9363779,3.28598218 18.9400849,2.66189026 C16.2385979,0.970678193 13.0849472,0.0846217585 9.90830511,0.00372095368 C8.35638708,-0.0348032391 6.73932681,0.229087481 5.24488722,0.643222554 C3.88073212,1.01883343 1.60458567,1.850956 0.907180531,3.33221121 C0.773064158,3.4708983 0.63319994,3.60380677 0.504831412,3.74827249 C-0.72903922,5.11202892 0.451184862,7.66810911 2.39970417,7.02090267" id="path472"></path>
                        </g>
                        <g id="g478" transform="translate(17.7379, 16.0318)" fill="#EDEDED">
                            <path d="M0.519906383,5.47166727 C1.07361541,6.02834185 2.07374036,6.24407733 2.81904421,6.14198822 C3.27887177,6.08034951 3.6735571,5.87424508 4.08931785,5.67584549 C4.18319932,5.63154267 4.27899672,5.59109227 4.37096224,5.54293702 L4.37096224,5.54293702 C4.86336092,5.37150437 5.34426392,5.1788834 5.84241044,5.03249147 C6.3099018,4.89380438 6.783141,4.79364147 7.2602121,4.70118341 C7.3119427,4.69155236 7.34642977,4.68384753 7.3713371,4.6780689 C7.39432847,4.67614269 7.41731985,4.67421648 7.45947071,4.67036406 C7.87331552,4.62606124 8.28332843,4.57020116 8.69334135,4.50856245 C8.60329178,4.52204592 8.56305687,4.52782454 8.5324017,4.53167696 C8.58604825,4.52397213 8.67226592,4.51241487 8.71058488,4.50856245 C8.84853315,4.49507898 8.98839737,4.48159551 9.12634564,4.47003826 C9.43864519,4.44692374 9.75094474,4.43536648 10.0613284,4.43536648 C10.4943326,4.43536648 11.2281408,4.4392189 11.4273994,4.46040721 C12.5329015,4.5798322 13.5272786,4.9188451 14.5044122,5.44277412 C15.1730781,5.80297533 16.0333388,5.61228057 16.4261082,4.93618099 C16.8457009,4.21577858 16.5334013,3.45877819 15.9222139,3.00226651 C12.440936,0.398031078 7.97102888,-0.836669301 3.66206141,0.621471396 C3.07194937,0.821797198 2.49333301,1.07798308 1.9319602,1.34765243 C1.06786756,1.76371371 0.456680093,2.32231451 0.142464591,3.27193586 C-0.102776777,4.01737899 -0.0644578135,4.88417333 0.519906383,5.47166727" id="path480"></path>
                        </g>
                        <g id="g482" transform="translate(53.4916, 73.4351)" fill="#EDEDED">
                            <path d="M1.56722184,4.38699347 C2.71104291,4.67977733 3.83953639,4.98989708 5.01784453,5.06116684 C6.01605353,5.12280555 7.01043064,5.1921491 8.01247154,5.19600152 C10.0529564,5.20178014 12.0857774,5.27497611 14.1224303,5.35395071 C15.0708247,5.39054869 15.8755229,4.59502411 15.9962276,3.69163179 C16.1111845,2.84024713 15.5689712,1.73075037 14.6301566,1.58628465 C12.6260748,1.28001732 10.6258249,0.969897566 8.63323875,0.592360477 C7.51432501,0.380477417 6.38583153,0.247568952 5.25733805,0.101177019 C5.01976047,0.0703576648 4.778351,0.0260548431 4.53885748,0.00679274667 C4.20356655,-0.0201741883 3.89318294,0.0395383105 3.5655558,0.074210084 C3.53490063,0.0665052455 3.16895453,0.0761362937 3.09998039,0.0780625033 C2.78193299,0.0896197612 2.46196965,0.0992508094 2.1420063,0.118512906 C1.06141152,0.182077824 0.166663719,0.89477539 0.0191357091,2.00234593 C-0.120728509,3.04442535 0.517282237,4.11925033 1.56722184,4.38699347" id="path484"></path>
                        </g>
                        <g id="g486" transform="translate(21.6097, 72.9901)" fill="#EDEDED">
                            <path d="M2.64528115,6.72670817 C3.17025096,6.58224245 3.69522076,6.44162914 4.21444272,6.27982753 C4.62445563,6.15077149 5.00956122,5.96970778 5.40041465,5.79057028 C5.50004395,5.74434125 5.64948791,5.68270254 5.71079825,5.65766182 C6.67452019,5.28205094 7.64015808,4.90836627 8.64028303,4.65025418 C9.1441774,4.51927192 9.65381962,4.41140418 10.1672937,4.32857717 C10.4431903,4.28427435 10.6999273,4.22070943 10.970076,4.15907072 C10.6232894,4.23997152 11.2823756,4.12825137 11.3647613,4.12054653 C12.4817591,4.01845742 13.3496837,3.95874492 14.5854702,4.0762437 C15.3192784,4.14751346 15.9821965,3.44829936 16.0645822,2.76449494 C16.1565478,1.98438004 15.7082159,1.36414053 14.9839875,1.10217602 C13.8631578,0.697671997 12.7020932,0.370216359 11.5218691,0.212267168 C11.3302743,0.185300233 11.1386795,0.158333298 10.9451687,0.137144992 C10.9240933,0.133292573 10.7938088,0.115956686 10.713339,0.104399429 C10.8397915,0.110178057 10.7803972,0.100547009 10.4949209,0.069727655 C10.3646364,0.0523917683 10.2362679,0.0350558815 10.1078993,0.0177199948 C9.96803512,0.00616273693 9.83008685,0.000384108013 9.69022263,0.000384108013 C9.09819464,-0.00346831127 8.5080826,0.021572414 7.92180246,0.0793587032 C6.66877234,0.20456233 5.40999439,0.385626036 4.22210651,0.813244576 C3.53811301,1.06172562 2.77939753,1.29479699 2.19694928,1.73397278 C1.61450103,2.17507479 1.0646239,2.60654575 0.572225217,3.14781066 C-0.828332907,4.69263079 0.52624246,7.31034969 2.64528115,6.72670817" id="path488"></path>
                        </g>
                    </g>
                    <g id="g450" transform="translate(43.6083, 39.8764)" fill="#EDEDED">
                        <path d="M2.65361736,7.30964373 C3.38742551,7.07849857 4.07716686,6.85698446 4.74774872,6.46789012 C5.06196423,6.28297399 5.38192757,6.10961512 5.70572282,5.94203489 C5.84941893,5.86883892 5.99503099,5.79564295 6.14064306,5.72629941 C6.17704607,5.70896352 6.57939519,5.5259736 6.40695985,5.59916957 C6.69626803,5.47396594 7.54886497,5.17925587 8.07191883,5.03479015 C8.71567742,4.85372644 9.37667954,4.70733451 10.0415136,4.61872886 C10.1277312,4.61487644 10.5875588,4.57249983 10.689104,4.56479499 C11.0128993,4.53975427 11.3386105,4.51086112 11.6624057,4.49352524 C12.3061643,4.45885346 12.9537548,4.46077967 13.5994293,4.5070087 C14.7758215,4.58983572 16.0729185,4.90380789 17.3067891,5.36802441 C19.193998,6.07686956 20.4067932,3.07390873 18.6690282,2.12043496 C15.906231,0.606434184 12.6318755,-0.246876686 9.4782248,0.0632430662 C7.89948349,0.219266047 6.33606977,0.517828541 4.84737803,1.07835555 C4.01202462,1.39232772 3.17667121,1.74482408 2.4007122,2.1878523 C1.47914112,2.71563374 0.908188559,3.38402848 0.314244622,4.24889661 C-0.720367399,5.74748771 0.992490279,7.83357275 2.65361736,7.30964373" id="path452"></path>
                    </g>
                    <g id="Group-14" transform="translate(4.3109, 73.6775)">
                        <polygon id="path492" fill="#EB9632" transform="translate(41.2408, 18.1959) scale(1, -1) translate(-41.2408, -18.1959)" points="55.1639802 0 27.3195052 0 0 36.3918787 82.4815694 36.3918787"></polygon>
                        <g id="g494" transform="translate(41.0661, 68.8572) scale(1, -1) translate(-41.0661, -68.8572)translate(27.3191, 36.3919)" fill="#EB7E2E">
                            <polygon id="path496" points="20.2783956 0 7.21546087 0 0 64.9306007 27.4938565 64.9306007"></polygon>
                        </g>
                    </g>
                </g>
            </g>
        </g>
    </g>
</svg>